# xmcd CD database file
#
# Track frame offsets:
#	150
#	21387
#	36786
#	52231
#	64554
#	79642
#	95351
#	110890
#	124214
#	144294
#	160189
#	177374
#	196796
#	211773
#	224562
#	236954
#
# Disc length: 3461 seconds
#
# Revision: 1
# Processed by: cddbd v1.5.2PL0 Copyright (c) Steve Scherf et al.
# Submitted via: CDex 1.51
#
DISCID=e90d8310
DTITLE=Captain Luke - Old Black Buck
DYEAR=2007
DGENRE=Blues
TTITLE0=Polk Salad Annie
TTITLE1=One of these days
TTITLE2=Angels of mercy
TTITLE3=Chokind kind
TTITLE4=Serve me right
TTITLE5=Old black Buck
TTITLE6=I'm a king bee
TTITLE7=Hotel happiness
TTITLE8=Still water
TTITLE9=Waiter
TTITLE10=Put on your red dress
TTITLE11=I got what I wanted
TTITLE12=Careless love
TTITLE13=Short haired woman blues
TTITLE14=It's just a matter of time
TTITLE15=A rainy night in Georgia
EXTD=YEAR: 2007
EXTT0=
EXTT1=
EXTT2=
EXTT3=
EXTT4=
EXTT5=
EXTT6=
EXTT7=
EXTT8=
EXTT9=
EXTT10=
EXTT11=
EXTT12=
EXTT13=
EXTT14=
EXTT15=
PLAYORDER=
